<svg xmlns="http://www.w3.org/2000/svg" viewBox="0 0 254 159" role="img" aria-labelledby="title">
  <title id="title">Twinkl</title>
  <rect width="254" height="159" rx="2" fill="#29a9ed"/>
  <path fill="#fff" d="M48 124C20 124 0 104 0 80c0-22 18-40 42-40 11 0 22 4 30 11C82 24 107 8 137 8c31 0 57 18 67 45 6-11 17-18 30-18 19 0 34 16 34 36 0 18-13 33-30 36-8 18-27 30-49 30-10 0-20-2-29-7-12 18-33 29-57 29-25 0-46-12-58-31-2 0-4 .1-7 .1Z"/>
  <text x="35" y="105" fill="#25a9ed" font-family="Arial Rounded MT Bold, Trebuchet MS, Arial, sans-serif" font-size="55" font-weight="800" letter-spacing="-4">twinkl</text>
  <path fill="#ec5fd8" d="m119 48 5 10 11 1-8 8 2 11-10-5-10 5 2-11-8-8 11-1z"/>
</svg>
